<svg id="Capa_1" enable-background="new 0 0 512 512" height="512" viewBox="0 0 512 512" width="512" xmlns="http://www.w3.org/2000/svg" xmlns:xlink="http://www.w3.org/1999/xlink"><linearGradient id="SVGID_1_" gradientUnits="userSpaceOnUse" x1="256" x2="256" y1="512" y2="0"><stop offset="0" stop-color="#fd3a84"/><stop offset="1" stop-color="#ffa68d"/></linearGradient><g><g><path d="m103.152 137.819c-8.5-8.499-13.18-19.799-13.18-31.819s4.681-23.32 13.18-31.819c5.858-5.858 5.858-15.355 0-21.213s-15.355-5.857-21.213 0c-14.166 14.166-21.967 33-21.967 53.033s7.801 38.868 21.967 53.033c2.929 2.929 6.768 4.393 10.606 4.393s7.678-1.464 10.607-4.394c5.858-5.858 5.858-15.356 0-21.214zm-42.427-106.066c5.858-5.858 5.858-15.355 0-21.213-5.857-5.858-15.355-5.858-21.213 0-52.637 52.636-52.637 138.283 0 190.919 2.929 2.929 6.768 4.394 10.606 4.394s7.678-1.464 10.606-4.394c5.858-5.858 5.858-15.355 0-21.213-40.938-40.939-40.938-107.553.001-148.493zm369.337 21.214c-5.857-5.858-15.355-5.858-21.213 0s-5.858 15.355 0 21.213c8.499 8.5 13.18 19.8 13.18 31.82s-4.681 23.32-13.18 31.82c-5.858 5.858-5.858 15.355 0 21.213 2.929 2.929 6.768 4.394 10.606 4.394s7.678-1.464 10.606-4.394c29.243-29.242 29.243-76.824.001-106.066zm42.426-42.426c-5.857-5.858-15.355-5.858-21.213 0s-5.858 15.355 0 21.213c40.939 40.94 40.939 107.553 0 148.493-5.858 5.858-5.858 15.355 0 21.213 2.929 2.929 6.768 4.394 10.606 4.394s7.678-1.464 10.606-4.394c52.638-52.637 52.638-138.283.001-190.919zm-81.514 200.459h-45.002v-166c0-2.329-.542-4.625-1.583-6.708-1.961-3.919-21.091-38.292-88.417-38.292s-86.457 34.373-88.417 38.292c-1.042 2.083-1.583 4.379-1.583 6.708v166h-45c-8.284 0-15 6.716-15 15v60.911c0 39.86 15.554 77.331 43.797 105.509 24.817 24.76 56.787 39.706 91.203 42.92v46.66h-45c-8.284 0-15 6.716-15 15s6.716 15 15 15h120c8.284 0 15-6.716 15-15s-6.716-15-15-15h-45v-46.662c34.429-3.216 66.391-18.16 91.202-42.914 28.243-28.178 43.798-65.649 43.799-105.511l.001-60.913c0-3.978-1.58-7.793-4.394-10.606-2.813-2.813-6.628-4.394-10.606-4.394zm-195.002-30h30c8.284 0 15-6.716 15-15s-6.716-15-15-15h-30v-30h30c8.284 0 15-6.716 15-15s-6.716-15-15-15h-30v-41.358c4.846-5.751 20.629-19.642 60-19.642s55.154 13.891 60 19.642v41.358h-30c-8.284 0-15 6.716-15 15s6.716 15 15 15h30v30h-30c-8.284 0-15 6.716-15 15s6.716 15 15 15h30v30h-120zm0 60h120v70.358c-4.846 5.751-20.629 19.642-60 19.642s-55.154-13.891-60-19.642zm180.001 45.913c0 31.835-12.426 61.764-34.988 84.273-22.509 22.458-52.38 34.815-84.172 34.815-.093 0-.831 0-.831 0-.003 0-.006 0-.01 0s-.006 0-.01 0c0 0-.755 0-.851 0-31.765 0-61.643-12.36-84.154-34.819-22.561-22.509-34.985-52.437-34.985-84.271v-45.911h30v75c0 2.329.542 4.625 1.583 6.708 1.96 3.919 21.09 38.292 88.417 38.292s86.457-34.373 88.417-38.292c1.042-2.083 1.583-4.379 1.583-6.708v-75h30.002z" fill="url(#SVGID_1_)"/></g></g></svg>